<svg xmlns="http://www.w3.org/2000/svg" viewBox="0 0 200 49.38">
<path d="M63.31,26.41h6l-.06-7.57L77.56,4.75h-6s-4.25,7.52-4.91,10.44c-1.33-3.64-4.81-10.38-4.81-10.38H55L63.42,19Z"/><path d="M98.33,15.63c0,7.46-4.14,11.44-10.83,11.44-7.45,0-11-4.92-11-11.32S80.54,4.26,87.56,4.26C93.64,4.26,98.33,8.07,98.33,15.63ZM87.23,8.46c-2.27,0-4.75,1.76-4.75,7,0,4.14,1.27,7.51,5,7.51,3.31,0,5-2.26,5-7.45C92.42,10.5,90.26,8.46,87.23,8.46Z"/><path d="M111.48,11.05h6c0-4.31-2.76-6.74-8.73-6.74s-8.89,3.15-8.89,6.91,3.79,5.19,5,5.58c1.6.49,3.93,1.13,5.19,1.54s2,.67,2,2.27-1.55,2.54-3.26,2.54-3.81-.94-3.59-3.48c0-.05-5.85-.11-5.85-.11.22,5,3.09,7.4,9.39,7.4s9.33-2.93,9.33-6.8-2.48-5.35-4.91-6-3.76-1.06-5-1.44-2.49-1-2.49-2.43,1.55-2.21,2.93-2.21S111.86,8.68,111.48,11.05Z"/><polygon points="134.63 4.7 134.63 13.21 126.12 13.21 126.12 4.7 120.1 4.7 120.1 26.3 126.12 26.3 126.12 17.52 134.63 17.52 134.63 26.3 140.65 26.3 140.65 4.7 134.63 4.7"/><rect x="143.69" y="4.7" width="6.02" height="21.6"/><path d="M168.66,4.7v12c0,2.39.12,4.71.26,6.46a68.09,68.09,0,0,0-2.48-7.61c-2.26-5.58-5-10.83-5-10.83h-8.35l-.27,21.6h5v-12c0-2.26-.11-4.44-.23-6.16.86,2.44,2.12,5.79,3.45,8.86,2.2,5.11,4.52,9.29,4.52,9.29h7.79l.27-21.6Z"/><path d="M187.11,4.26c-7,0-11.1,5.08-11.1,11.49s3.59,11.32,11,11.32c6.69,0,10.83-4,10.83-11.44S193.18,4.26,187.11,4.26ZM187,23c-3.71,0-5-3.37-5-7.51,0-5.25,2.49-7,4.76-7,3,0,5.19,2,5.19,7.07C192,20.72,190.31,23,187,23Z"/><path d="M145.88,34a8,8,0,0,1-2.1-.13c-.21-.13-.35-.28-.28-.53a2.14,2.14,0,0,1,.57-.69c.1-.1.05-.28,0-.41s-.26-.13-.46-.28a4.45,4.45,0,0,0-.79-.38,3,3,0,0,0-.69-.29,8.47,8.47,0,0,0-1,.92,7.81,7.81,0,0,1,.33.92c0,.23.28.74-.44.77-1.4,0-1.58.1-2.39.15a9.18,9.18,0,0,1-1.79,0,5.51,5.51,0,0,1-.64-.34,3.39,3.39,0,0,0-.92.85,3.08,3.08,0,0,0-.51.92c0,.23-.22.6.79.89.58.17,1.05-.26,1.38-.35a6.07,6.07,0,0,1,1.3-.24,27.16,27.16,0,0,1,3-.07c.31,0,.5.26.48.69,0,.69-.17,1-.61,1s-3,.1-3.27,0-.38-.41-.64-.36-.3.28-.48.38-.52.36-.49.64a1.69,1.69,0,0,0,.69,1.07.46.46,0,0,0,.41,0,2.35,2.35,0,0,1,.9-.36,36.27,36.27,0,0,1,4-.12c2.71,0,4.21.17,5,.2s1.13.08,1.46-.46a1.91,1.91,0,0,0,.41-1.07c-.06-.13-.67.15-1.31.2a18,18,0,0,1-2.12-.13,7.82,7.82,0,0,1-2.06-.18,1,1,0,0,1-.28-.71c0-.28,0-.87.58-.87s2.53-.07,3.27,0a14.61,14.61,0,0,0,1.89,0c.21,0,.4-.31.49-.56a3.78,3.78,0,0,0,.36-1.1Z"/><path d="M147.44,40.25c-.29-.13-.75.09-1.25,0s-2.18-.13-3.58-.13a29.9,29.9,0,0,0-4,.23c-.66.16-.66-.31-1.61-.15-.31,0-.3.46-.2.87a5.77,5.77,0,0,1,.07,1.38,2.91,2.91,0,0,1-.23,1.17.56.56,0,0,0,.18.69c.31.28.72.59.9.72s.28.18.46,0,.25-.46.74-.54a20.72,20.72,0,0,1,3.55-.1,16.85,16.85,0,0,1,3.73.23,1.77,1.77,0,0,0,1.32.31c.47-.11.52-.34.54-.49a2.34,2.34,0,0,0,.18-.72c0-.38-.1-1-.06-1.43a5,5,0,0,1,.26-1C148.56,41.17,147.74,40.38,147.44,40.25Zm-1.28,2.6c0,.26-.21.28-.56.28s-1.61,0-3.35,0-2.77.14-3-.08c-.46-.38-.14-1.17,0-1.38a15.6,15.6,0,0,1,3-.2c.94,0,2.35,0,3,.07s.92.21,1,.39A3.8,3.8,0,0,1,146.16,42.85Z"/><path d="M166.51,37.92c-.69-.17-1.6-.38-2.27-.58-.15-.41-.43-1.28-.43-1.28a9.72,9.72,0,0,1,1.78-1.71,1.68,1.68,0,0,1,.7-.28.31.31,0,0,0,.15-.49,12.94,12.94,0,0,0-1.28-1.4c-.23-.15-.31-.08-1,0a19.76,19.76,0,0,1-3.73.08c-.41.3-.86.79-.84,1s.84,1,1.07,1.12.59,0,.77-.1a2.31,2.31,0,0,1,.76-.33,3.38,3.38,0,0,1,1.13,0c.2,0,.25.36.15.51a3.73,3.73,0,0,1-.71.92c-.23.13-.34.11-.69-.08a3.3,3.3,0,0,0-1.33-.35,1.15,1.15,0,0,0-.67.54c0,.12-.07.66.11.81s.38.08.68.15.9.31,1,.49,0,.36-.16.41-1.17.2-1.55.3a4.54,4.54,0,0,0-.87.31c-.18.1-.41-.08-.41-.08-.39,0-.26-3.13-.1-3.6s.32-.65.33-.79c0-.31-.89-.89-1.13-.89a22.32,22.32,0,0,0-2.37-.1,17.25,17.25,0,0,1-2.4.05,2.5,2.5,0,0,1-1-.34,2.19,2.19,0,0,0-.31,1.08c.05.76.26.58.31,1.3a9.61,9.61,0,0,1,0,2.07L152,38.05a1,1,0,0,0,.49,1c.48.31.66.21.79.13a3.92,3.92,0,0,1,.74-.36c.2,0,.33-.12.46,0s.36.18.33.43-.07,1.18-.3,1.28a4.44,4.44,0,0,1-1.33.08c-.46,0-.69-.1-.74-.18s-.46.23-.46.41-.12.36.43,1.2.92.56,1.05.48a3.65,3.65,0,0,1,.59-.35c.12,0,.53-.11.53.28s.05.84-.23.89-1.71.15-2,.15-.49.05-.49.39a1.83,1.83,0,0,0,.31,1c.23.41.43.77.61.74s.28-.33.74-.61a3.66,3.66,0,0,1,1.33-.35,6.62,6.62,0,0,0,2.37-.64c.41-.31.9-.65,1.2-.9a1,1,0,0,0,.44-.61c-.49.13-.51.18-.77.23-.52.11-.94.2-1.35.31s-.64.07-.74-.16,0-.84.18-.92a2.16,2.16,0,0,1,.84-.15,1.25,1.25,0,0,0,.94-.28,2.18,2.18,0,0,0,.41-.82c-.3-.2-.36-.32-1.2-.2s-1,0-1.2-.18A5.31,5.31,0,0,1,156,39a.48.48,0,0,1,.58-.31c.29.08.74.36,1.08.46s.48.08.63,0a5.44,5.44,0,0,0,.59-.58c.34.43.42,1.09.69,1.27a.68.68,0,0,0,.77.08,3.44,3.44,0,0,1,1.3-.59,11,11,0,0,1,3.09-.1c.23,0,.41.21.33.43a1.67,1.67,0,0,1-.66.9c-.41.28-.5.41-.85.38s-.43-.5-1.35-.64a6.07,6.07,0,0,1,.16,2.33c-.21.66-.28,1.1-.82,1.12l-1.94.1a9.92,9.92,0,0,0,3.34,1.59c.23,0,.35-.15.41-.43.23-.06.41-.08.54-1.41a9.2,9.2,0,0,0,.1-2.22c.31-.36.23-.36.82-.18s1,.34,1.35-.13a5.85,5.85,0,0,0,.72-1.28c.1-.23.27-.12.35-.43S166.64,38.1,166.51,37.92Zm-11.87-.51a.49.49,0,0,1-.51.28.37.37,0,0,1-.41-.25,1.43,1.43,0,0,1-.05-.69c0-.23.36-.36.51-.36a.44.44,0,0,1,.46.26A1.1,1.1,0,0,1,154.64,37.41Zm0-2.4c-.1.13-.2.16-.46.16s-.38,0-.5-.23a1.58,1.58,0,0,1,0-1c.08-.18.54-.15.66-.15a.42.42,0,0,1,.39.33A1.78,1.78,0,0,1,154.66,35Zm2.28,2.33a.43.43,0,0,1-.46.28c-.28,0-.36-.08-.44-.23a1.28,1.28,0,0,1,0-.67.42.42,0,0,1,.46-.3.35.35,0,0,1,.38.25A1.53,1.53,0,0,1,156.94,37.34Zm-.18-2.28a.77.77,0,0,1-.56,0c-.11-.07-.18-.46-.18-.81a.56.56,0,0,1,.51-.59c.23,0,.51.08.51.66S156.89,35,156.76,35.06Z"/><path d="M181.89,32.54c-.87,0-2.86-.13-5.49-.13-2.09,0-2.26.11-4.91,0a3.09,3.09,0,0,1-.74-.23,2.54,2.54,0,0,0-1.27,1.48,1.75,1.75,0,0,0,.89,1.05c.25,0,.48.1.56.38,0,.69-.46,8.07-3.93,7.89.05.46.29.66.56,1.18a1.41,1.41,0,0,0,1.36.86,1.17,1.17,0,0,0,1.17-.71,6.19,6.19,0,0,0,1.07-2.73,36.92,36.92,0,0,0,.77-6.75c0-.48.55-.64,1-.66,1.2-.05,3-.13,4.44-.08s3.25,0,3.76.13.84.23,1,.16a2.11,2.11,0,0,0,.84-.72,3,3,0,0,0,.69-1.38A7.24,7.24,0,0,1,181.89,32.54Z"/><path d="M181.94,37.9a2.43,2.43,0,0,0-1.21-.14,34.77,34.77,0,0,0-3.66,0c-3.28.18-3.35,0-3.51,0-.46.22-.87.67-.84.82s0,.17.36.76a3,3,0,0,1,.38,1.79,7.92,7.92,0,0,1-.24,2A1.49,1.49,0,0,0,173,44c.08.28,0,.3.32.66s.46.45.61.48.34.17.54,0a6.6,6.6,0,0,1,1.3-.58,21.12,21.12,0,0,1,4.24,0,2.35,2.35,0,0,0,1.11.45c.37,0,.62-.41.88-.7a1.79,1.79,0,0,0,.15-.92c0-.28,0-3.1,0-3.42a3.54,3.54,0,0,1,.45-1c.1-.17.1-.27,0-.47A2.69,2.69,0,0,0,181.94,37.9Zm-1.89,4.63a.61.61,0,0,1-.59.53c-.24,0-3,0-3.55,0s-.68-.36-.68-.47,0-.6,0-1,.05-1.21.05-1.48a.66.66,0,0,1,.42-.59c.29-.07,3.31-.07,3.75-.06a.52.52,0,0,1,.56.41A24.86,24.86,0,0,1,180.05,42.53Z"/><path d="M186.13,34.36c.47,0,.93-.56,1.09-.67s0-.08,1.68-.07,2.41,0,4.65,0,3.12,0,3.46.07a2.31,2.31,0,0,0,1.14-.12c.37-.14.71-.24.71-.68a8.05,8.05,0,0,0-2.46-.19c-1.42,0-2.58-.08-2.78-.1s-.12-.58-.44-.87-.28-.3-1.38-.42c-.82-.09-1.15.08-1.18.32s.29.38.29.51.07.36-.19.45-.15.06-.86.06-3.46,0-3.68.12a1.65,1.65,0,0,0-.66,1.11C185.52,34.19,185.77,34.38,186.13,34.36Z"/><path d="M194.77,34.19c-.47,0-3.42-.12-4.32,0a5.07,5.07,0,0,0-2.23-.19,1.8,1.8,0,0,0,0,.71c.05.53.05.72.17.86s.17.37.55.35a9.35,9.35,0,0,0,1.14-.17c.94,0,3.45.11,4.36,0a5,5,0,0,0,1.2.33c.21,0,.4,0,.48-.19a5.5,5.5,0,0,1,.6-.77.48.48,0,0,0,0-.57,2.38,2.38,0,0,0-1-.53C195.43,33.93,195.06,34.2,194.77,34.19Zm-.62,1-1.69,0c-.92,0-1.53-.05-1.74-.05a.44.44,0,0,1,0-.52c.07-.07,2.64,0,3,0,.14,0,.48,0,.54.1S194.25,35.05,194.15,35.14Z"/><path d="M199.89,36.4a4.87,4.87,0,0,0-.89-.61,1.16,1.16,0,0,0-.89.05c-.22.13-.49.48-.92.52-.78.09-2.13-.08-3.89,0-1,.06-5.81,0-6.13,0-1.11-.56-2.29-.8-2.34-.55s-.12,1.76-.22,2.3a6.78,6.78,0,0,0-.22,1.07.81.81,0,0,0,.67.62,1.14,1.14,0,0,0,.8-.41,2.17,2.17,0,0,0,.4-1.16c.07-.49.1-1,.62-1.1a23.63,23.63,0,0,1,3.16,0c1,0,2.35,0,3.87,0s1.7.09,3.57.06a.45.45,0,0,1,.46.35,5.32,5.32,0,0,1,.14,1,.64.64,0,0,0,.46.39.79.79,0,0,0,.58-.51,4.57,4.57,0,0,0,.32-1c0-.27.34-.49.46-.63S200.05,36.59,199.89,36.4Z"/><path d="M189.52,40.16c.78,0,.95-.36,1.22-.36s.94,0,1.79,0,2-.09,2.14-.05a4.38,4.38,0,0,0,1,.25c.34,0,.48-.2.74-.52s.37-.43.39-.74.06-.52,0-.57-.48-.49-.71-.53a2.36,2.36,0,0,0-1.11.29h-4.28a4,4,0,0,0-1.27-.37c-.32,0-1-.12-1,0v.7a3.88,3.88,0,0,0,.15,1.31C188.68,39.85,188.73,40.16,189.52,40.16Zm1.39-1.63c.12,0,2.68,0,2.91,0,.7,0,.91-.06.91.28s-.23.36-.36.36c-.84,0-3,0-3.29,0s-.53-.12-.53-.32A.33.33,0,0,1,190.91,38.53Z"/><path d="M198,41.46c0-.16,0-.18-.26-.36a3,3,0,0,0-.92-.63,1.14,1.14,0,0,0-.81,0,1.23,1.23,0,0,1-.41.2c-.21.07-1.86-.07-3.44-.07s-3,.07-3.12,0-.44-.48-.8-.29c-.19.1-.17.26-.22.9s-.45,2-1.11,2.1a5.9,5.9,0,0,1-2,0,1.68,1.68,0,0,0,.81,1.1,3.79,3.79,0,0,0,.87.58,1.85,1.85,0,0,0,.68.24c.27,0,.24.05.66-.14s.6-.19.82-.49.53-.73.71-.73A15.1,15.1,0,0,1,192,44c.34,0,2-.06,2.44,0s.64.1.84.47,0,.75.67.91c.15,0,.37.1.54.15a1,1,0,0,0,.75-.24.89.89,0,0,0,.46-.77c0-.32-.07-.42-.09-1.07a5,5,0,0,1,.07-1.38C197.81,41.81,198,41.61,198,41.46Zm-8.12-.09c.22-.06,1.85,0,2.6,0s2.3.09,2.45.09a.36.36,0,0,1,.33.3.34.34,0,0,1-.19.31,16.9,16.9,0,0,1-2.27,0c-1.51,0-2.62,0-2.92,0s-.29-.22-.29-.38S189.74,41.41,189.86,41.37Zm5.24,1.94a16.22,16.22,0,0,0-1.76.07c-.41,0-3.32,0-3.57,0s-.29-.19-.29-.38a.31.31,0,0,1,.24-.3,19.38,19.38,0,0,1,2.28-.09c.83,0,1.89,0,2.11,0s.73.12.92.14.24.1.24.24S195.22,43.31,195.1,43.31Z"/><path d="M59.38,34.7V34a.42.42,0,0,0-.48-.48H56.83v-.22c0-.34-.69-.33-.69,0v.22h-2a.43.43,0,0,0-.49.48v.7c0,.3.61.3.61,0v-.46c0-.07,0-.1.1-.1h4.27c.06,0,.14,0,.14.1v.45C58.78,35,59.38,35,59.38,34.7Zm-.11,1.11a.31.31,0,0,0,0-.61h-3c.11-.17.21-.34.31-.52.22-.39-.46-.68-.64-.31a8.36,8.36,0,0,1-.46.83H53.78a.31.31,0,0,0,0,.61h1.29a8.19,8.19,0,0,1-.62.75.5.5,0,0,0,.28.88c.46.14.92.29,1.37.45a5.66,5.66,0,0,1-2.16.53c-.46,0-.36.75.11.69a6.22,6.22,0,0,0,2.86-.91c.69.27,1.35.57,2,.88.34.17.68-.49.3-.65-.62-.27-1.19-.5-1.72-.71a5.72,5.72,0,0,0,1.17-1.91Zm-1.34,0a4,4,0,0,1-1.16,1.65c-.53-.19-1.06-.36-1.62-.52-.08,0-.12-.09,0-.18a11.69,11.69,0,0,0,.76-.95Z"/><path d="M65.83,35.21s-.19-.07-.3-.12c.06.23,0,.46-.27.46H63.6v1h1.93c.36,0,.36.67,0,.67H63.6v1.17h2.31c.37,0,.37.65,0,.65H60.57c-.37,0-.37-.65,0-.65h2.31V37.17H61c-.37,0-.37-.67,0-.67h1.88v-1H61.29c-.21,0-.35-.23-.27-.5l-.37.14a.34.34,0,1,1-.23-.63,9.32,9.32,0,0,0,2.48-1.42.89.89,0,0,1,.7,0,11.53,11.53,0,0,0,2.48,1.42A.35.35,0,0,1,65.83,35.21Zm-2.49-1.38a.17.17,0,0,0-.18,0,9.79,9.79,0,0,1-1.76,1.06h3.68A13.92,13.92,0,0,1,63.34,33.83Z"/><path d="M71.83,36a5.2,5.2,0,0,0-.56-.7c-.22-.24-.57.07-.36.3a5.72,5.72,0,0,1,.5.68A.25.25,0,0,0,71.83,36Zm.61-.4a4.88,4.88,0,0,0-.53-.63c-.22-.21-.57.09-.34.31a3.53,3.53,0,0,1,.48.58A.23.23,0,1,0,72.44,35.58Zm.16-1.24a.37.37,0,0,0,0-.73c-2.37,0-3.91.1-5.23.19a.35.35,0,1,0,.09.7c1-.09,2-.16,3.24-.22a4.27,4.27,0,0,0-2.26,1.58c-1,1.51-.18,3.77,3.35,3.13a.37.37,0,1,0-.09-.73c-2.67.45-3.38-.85-2.67-2A4.88,4.88,0,0,1,72.6,34.34Z"/><path d="M78.69,36h-1c0-.27,0-.52,0-.81v-.73h.93c.07,0,.1,0,.1.1ZM76,35.35a7.8,7.8,0,0,0-.3-1c-.1-.28-.56-.1-.49.15a7.7,7.7,0,0,1,.26,1C75.54,35.86,76.1,35.7,76,35.35Zm-1.62-.89a.25.25,0,1,0-.5,0A8.54,8.54,0,0,1,73.68,36c-.08.3.45.54.53.17A8.82,8.82,0,0,0,74.39,34.46Zm5.17,4a3.64,3.64,0,0,1-1.5-1.85h1.38a.31.31,0,0,0,0-.61h-.15V34.31a.42.42,0,0,0-.48-.48H77.66v-.49c0-.37-.64-.37-.64,0v.49H76a.31.31,0,0,0,0,.62h1v.73c0,.29,0,.55,0,.81H75.7a.31.31,0,0,0,0,.61h1.23a2.4,2.4,0,0,1-1.43,1.87c-.33.18-.07.79.31.59a3.13,3.13,0,0,0,1.7-2.4,4.33,4.33,0,0,0,1.7,2.4C79.54,39.29,79.94,38.69,79.56,38.45Zm-4.38.39V33.33c0-.37-.63-.37-.63,0v5.51C74.55,39.21,75.18,39.21,75.18,38.84Z"/><path d="M84.77,34a4.23,4.23,0,0,1-.25.47H83.7c-.06-.15-.12-.31-.19-.47Zm-3,.18a6.79,6.79,0,0,0-.66-.83c-.29-.31-.82.1-.52.43a7,7,0,0,1,.68.87C81.48,35,82,34.58,81.76,34.2Zm4.44,3.2V34.9a.36.36,0,0,0-.39-.41H85.2c.08-.15.17-.31.24-.47h.69a.29.29,0,0,0,0-.58H84.45v-.15c0-.31-.69-.3-.69,0v.15H82.13a.29.29,0,0,0,0,.58h.72a3.35,3.35,0,0,1,.21.47h-.59a.36.36,0,0,0-.39.41v3c0,.31.61.35.61,0V35.13c0-.05,0-.08.09-.08h1v.33H83a.26.26,0,0,0,0,.51h.81v.37h-.53a.27.27,0,0,0-.3.3v1a.27.27,0,0,0,.3.3h1.64a.3.3,0,0,0,.3.29C86.08,38.2,86.2,38,86.2,37.4Zm0,.86c-2.7.24-3.85.21-4.45-.63v-2a.36.36,0,0,0-.39-.4h-.69c-.37,0-.37.62,0,.62h.41s.06,0,.06.07v1.93a2.13,2.13,0,0,1-.61.56c-.38.26.09.84.36.61a3.85,3.85,0,0,0,.7-.7c.72.67,2.16.75,4.53.61C86.52,38.94,86.55,38.23,86.2,38.26Zm-.61-.88c0,.2,0,.21-.27.17v-1a.27.27,0,0,0-.3-.3H84.4v-.37h.88a.26.26,0,0,0,0-.51H84.4v-.33h1.1c.06,0,.09,0,.09.08Zm-.86-.11s0,.07-.06.07h-1s-.06,0-.06-.07V36.8s0,0,.06,0h1s.06,0,.06,0Z"/><path d="M92.92,34.32a6.86,6.86,0,0,0-1.53-.77c-.42-.15-.63.45-.27.58a6.33,6.33,0,0,1,1.48.77C92.9,35.12,93.29,34.59,92.92,34.32Zm-2.66.13a.31.31,0,0,0-.07-.62l-1.07.07.09-.47c.06-.37-.6-.47-.66-.12s-.07.41-.11.6c-.3,0-.6,0-.88,0s-.37.62,0,.63h.72a9.5,9.5,0,0,1-1.16,2.54c-.27.42.35.82.59.42a11.39,11.39,0,0,0,1.25-3C89.39,34.52,89.81,34.49,90.26,34.45Zm2.61,3.13a6.17,6.17,0,0,0-1.24-.67,17.39,17.39,0,0,1,0-1.84c0-.4-.68-.41-.68,0,0,.71,0,1.19,0,1.65a2.69,2.69,0,0,0-.77-.13c-1,0-1.72.45-1.72,1.27s.77,1.26,1.66,1.26,1.56-.32,1.53-1.42a6.61,6.61,0,0,1,.82.52C92.84,38.46,93.24,37.85,92.87,37.58ZM91,37.63c0,.6-.37.79-.87.79s-1-.21-1-.57.34-.65,1-.65a2.35,2.35,0,0,1,.81.17Z"/><path d="M95.68,38.85a.31.31,0,0,1,0-.61h1.66V36.63H95.93c-.37,0-.37-.62,0-.62h1.41V34.69h-1.5c-.37,0-.37-.62,0-.62h1.62l-.53-.46c-.29-.24.18-.7.45-.48s.49.44.71.62a.27.27,0,0,1,.06.32H99.4c.37,0,.37.62,0,.62H98V36h1.31c.37,0,.37.62,0,.62H98v1.61h1.6a.31.31,0,0,1,0,.61Zm-.4-4.71v4.71c0,.37-.67.37-.67,0V35.54a1.69,1.69,0,0,1-.25.32c-.28.32-.67-.13-.46-.4a5.86,5.86,0,0,0,1-2.19c.08-.34.67-.23.59.12A5.65,5.65,0,0,1,95.28,34.14Z"/><path d="M105.56,36.11h-.94a.6.6,0,0,1-.68-.67v-.9c0-.37.66-.36.66,0v.82c0,.1,0,.13.13.13h.81c.27,0,.33-.08.41-.41a.28.28,0,0,1,.13-.18c-.14,0-.27-.08-.27-.22v-.42c0-.07,0-.1-.1-.1h-4.27a.09.09,0,0,0-.1.1v.58c0,.3-.62.3-.62,0V34a.42.42,0,0,1,.48-.48h2v-.25c0-.3.7-.31.7,0v.25H106a.42.42,0,0,1,.48.48v.66a.22.22,0,0,1-.18.21c.18,0,.36.2.3.38C106.34,36,106.15,36.11,105.56,36.11Zm-4.59.22c-.39,0-.49-.67-.09-.7a1.86,1.86,0,0,0,1.68-1.19c.13-.39.76-.14.63.24A2.59,2.59,0,0,1,101,36.33ZM100.82,39c-.38,0-.34-.63,0-.63h2.38V37.17h-2.11c-.39,0-.34-.63,0-.63h5c.34,0,.39.63,0,.63h-2.18v1.19h2.43c.35,0,.39.63,0,.63Z"/><path d="M112.55,34.12h-1.41v-.23c0-.06,0-.08.08-.08h1.25s.08,0,.08.08Zm.62,4.33v-4.8a.34.34,0,0,0-.39-.39h-1.86a.34.34,0,0,0-.39.39v1.47c0,.26.13.36.39.36h1.63v2.81c0,.2-.16.21-.72.12a.82.82,0,0,0,0-.28V36.24a.45.45,0,0,0-.46-.46h-2.25a.42.42,0,0,0-.46.46v1.89a.45.45,0,0,0,.46.46h2.37a.33.33,0,0,0,.24.45C112.84,39.24,113.17,39.07,113.17,38.45Zm-3.1-3.33V33.65c0-.26-.12-.39-.38-.39h-1.86a.34.34,0,0,0-.39.39v5.19c0,.37.62.37.62,0V35.48h1.63C110,35.48,110.07,35.38,110.07,35.12Zm-.6-1h-1.41v-.23c0-.06,0-.08.08-.08h1.25s.08,0,.08.08Zm3.08.84h-1.33c-.06,0-.08,0-.08-.08v-.26h1.41Zm-3.08-.08a.07.07,0,0,1-.08.08h-1.33v-.34h1.41Zm1.79,2h-2v-.4c0-.05,0-.08.08-.08h1.79c.06,0,.08,0,.08.08Zm0,1.06c0,.05,0,.08-.08.08h-1.79c-.06,0-.08,0-.08-.08v-.49h2Z"/><path d="M118.43,36.44v1.12c0,.38-.7.38-.69,0v-.84c-1,.46-1.4.89-1.4,1.23s.4.46,1.61.46a9.36,9.36,0,0,0,1.37-.1c.43-.06.47.62,0,.67a10.26,10.26,0,0,1-1.4.08c-1.72,0-2.3-.33-2.3-1s.79-1.42,2.08-2a.52.52,0,0,0-.53-.48,3.27,3.27,0,0,0-2.32,1.66c-.32.43-.9-.07-.59-.42a8.36,8.36,0,0,0,1.55-2.39h-1.15c-.37,0-.38-.65,0-.62h1.39c.06-.18.11-.36.17-.55.09-.35.76-.22.66.18,0,.11-.07.23-.11.35.75,0,1.51-.08,2.25-.16.41,0,.46.61.08.63-.88.08-1.74.13-2.57.15a6.52,6.52,0,0,1-.48,1,2,2,0,0,1,1.12-.4,1.09,1.09,0,0,1,1.18.84c.34-.12.72-.25,1.12-.37s.59.51.23.61S118.8,36.31,118.43,36.44Z"/><path d="M123.58,34.07h-1.3c.18-.12.4-.28.57-.42C123.1,33.78,123.37,33.94,123.58,34.07Zm1.14,0c-.59-.35-1-.61-1.58-.89a.72.72,0,0,0-.64,0,7.4,7.4,0,0,1-1.63,1,.32.32,0,0,0,.29.58c.28-.14.55-.28.79-.42a.24.24,0,0,0,.25.26h1.33a.25.25,0,0,0,.23-.36l.57.38C124.72,34.83,125.08,34.22,124.72,34Zm.83,3.49V33.63a.31.31,0,0,0-.61,0v3.88C124.94,37.87,125.55,37.87,125.55,37.51Zm1.06.9V33.33a.31.31,0,0,0-.61,0v4.91c0,.21-.14.25-.67.15-.35-.06-.47.58,0,.65C126.31,39.22,126.61,39,126.61,38.41Zm-2-1.86V35.17a.34.34,0,0,0-.39-.39h-2.71a.34.34,0,0,0-.39.39v1.12a5.34,5.34,0,0,1-.4,2.2c-.18.42.41.7.56.36a5.37,5.37,0,0,0,.43-1.91h2.51A.34.34,0,0,0,124.63,36.55Zm.1,2v-1a.35.35,0,0,0-.39-.4h-2.2a.35.35,0,0,0-.39.4v1a.34.34,0,0,0,.39.39h2.2A.34.34,0,0,0,124.73,38.59Zm-.71-3h-2.27v-.21s0-.08.08-.08h2.11c.06,0,.08,0,.08.08Zm0,.69s0,.08-.08.08h-2.19V36.1H124Zm.1,2s0,.08-.08.08h-1.6c-.06,0-.08,0-.08-.08v-.48s0-.08.08-.08H124c.06,0,.08,0,.08.08Z"/><path d="M130.27,39.06c-.89,0-1.85-.16-1.86-1.16,0-.68.68-1,1.25-1a2,2,0,0,1,1.88,1.33,1.52,1.52,0,0,0,1.09-1.07c.1-.84-.47-1.37-1.51-1.33a4.69,4.69,0,0,0-2.82,1c-.41.3-.89-.37-.44-.65a36.48,36.48,0,0,0,3.19-2.28c.06,0,0-.06,0,0a20.59,20.59,0,0,1-2.43.12.34.34,0,0,1,0-.67,26.71,26.71,0,0,0,3.06-.11A.45.45,0,0,1,132,34c-.62.5-1.29,1-2,1.43a3.54,3.54,0,0,1,1.11-.22c1.18-.05,2.35.56,2.19,2S131.56,39.06,130.27,39.06Zm-.59-1.58c-.35,0-.6.17-.6.44s.32.51,1.2.51a5.46,5.46,0,0,0,.58,0A1.25,1.25,0,0,0,129.68,37.48Z"/><rect x="53.92" y="28.69" width="143.95" height="0.29"/><path d="M31,29.89h.08s0,0,.08,0a2.45,2.45,0,0,0,.17-1.44c-.08-.17-.15-.37-.36-.33a.83.83,0,0,0,0,.44A7.84,7.84,0,0,0,31,29.89Z"/><path d="M22.91,29a.86.86,0,0,0-.15-.28c-.12-.08-.2,0-.25.08a2.69,2.69,0,0,0,.16,1V30c.16.12.24-.08.28-.2A6,6,0,0,1,22.91,29Z"/><path d="M22.86,30.5a.33.33,0,0,0,.2.4c.16-.16,0-.28,0-.4S22.9,30.42,22.86,30.5Z"/><path d="M35.72,8.79a.16.16,0,0,0,.21-.19.38.38,0,0,0-.16-.21h-.08l-.08.08C35.61,8.6,35.61,8.71,35.72,8.79Z"/><path d="M38.6,23.94c-.12.16,0,.32.12.44a12,12,0,0,1,1.39.5h.41v-.16a7,7,0,0,0-1.72-.78Z"/><path d="M37.53,22.4a4.19,4.19,0,0,0-1,0c-.31,0-.55.11-.67.11s-.16.12-.18.24a3.71,3.71,0,0,1,.44.45,2.33,2.33,0,0,0,1.36.25.62.62,0,0,0,.33-.56A1.71,1.71,0,0,0,37.53,22.4Z"/><path d="M36.57,26.29a.36.36,0,0,0-.4.15c0,.08,0,.16,0,.2.32.17.6.49,1,.45a.27.27,0,0,0,.12-.32c-.08,0-.12-.11-.2-.16A4,4,0,0,0,36.57,26.29Z"/><path d="M35.21,26.72c-.16.07-.49.15-.45.39.36.29.8.37,1,.77a.66.66,0,0,0,.36-.07c.12-.08.12-.2.12-.33a2.49,2.49,0,0,0-.6-.48C35.53,26.92,35.37,26.8,35.21,26.72Z"/><path d="M13.42,9.08c-.11-.08-.24,0-.36,0-.24.15-.6.23-.72.51a.42.42,0,0,0,.31.6c0-.11-.16-.19-.15-.36a1.5,1.5,0,0,1,.2-.4,1.49,1.49,0,0,1,.68-.23c.12.12.28.13.36,0A.21.21,0,0,0,13.42,9.08Z"/><path d="M35.87,24.6c.32.16.56.4.87.56a.43.43,0,0,0,.33-.11.65.65,0,0,0-.32-.41s0-.08,0-.12a.3.3,0,0,1,.2-.07c.12-.08.08-.13.08-.2A1.07,1.07,0,0,0,35.91,24v.11c.08.13.28.13.28.29S35.83,24.4,35.87,24.6Z"/><path d="M39,20.61a.45.45,0,0,0,.36.21,1,1,0,0,0,.89-.56.9.9,0,0,0-.36-.8c-.36,0-.64.27-.93.51A.62.62,0,0,0,39,20.61Z"/><path d="M36.72,9.77a.25.25,0,0,0,0-.16c-.08-.09-.16-.21-.28-.17a.2.2,0,0,0,0,.28S36.64,9.77,36.72,9.77Z"/><path d="M34.21,17.4a.49.49,0,0,0,0,.12c.32.17.65,0,1-.07a2.78,2.78,0,0,1,.92-.31.84.84,0,0,0,.24-.16,5.55,5.55,0,0,0,.53-.88c.17-.16.49-.23.64,0s0,.4.12.6a21.1,21.1,0,0,1-.18,2.25c0,.16.24.16.36.16a1.1,1.1,0,0,0,.41-.52c0-.64-.07-1.32,0-2a4.84,4.84,0,0,0-.34-2.05h-.12c-.12.16-.12.4-.29.52-.36.15-.8-.13-1,.19a6.27,6.27,0,0,1-.17.92C35.9,17,34.93,17.09,34.21,17.4Z"/><path d="M38.07,11c0-.08.08-.12.08-.2a3.49,3.49,0,0,0-.83-.49.13.13,0,0,0,0,.12,5.94,5.94,0,0,0,.64.77C38,11.22,38,11.1,38.07,11Z"/><path d="M38.82,16.8a1.73,1.73,0,0,0,0,.64,13.59,13.59,0,0,1-.18,1.41c0,.12,0,.28.2.32.49-.2.49-.76.61-1.2-.11-.48,0-1-.1-1.44,0-.09,0-.21-.08-.28a2.41,2.41,0,0,0,0-.53.36.36,0,0,1,0-.2c0-.4-.39-.68-.67-.89a.34.34,0,0,0-.08.16c0,.13,0,.25.07.37A5.94,5.94,0,0,0,38.82,16.8Z"/><path d="M39.37,9.55c.16,0,.32.16.52.12a.15.15,0,0,0,0-.12A.39.39,0,0,1,39.85,9c0-.12-.07-.24-.19-.28a1.24,1.24,0,0,0-1,.23C38.69,9.26,39.09,9.43,39.37,9.55Z"/><path d="M37.5,21.36c.12.12.32.25.36.44a1.83,1.83,0,0,0,1,1.86c.36,0,.8.05,1-.27a5.19,5.19,0,0,0,.26-1.88c-.24-.41-.73.07-1.09.07-.2,0-.4.15-.56,0,.16-.24.45-.39.37-.72-.16-.13-.28-.34-.47-.32a2.25,2.25,0,0,0-.86.47C37.46,21.12,37.5,21.24,37.5,21.36Z"/><path d="M37.79,20.64c.08-.12.24-.19.28-.32a.44.44,0,0,0-.28-.44c-.16,0-.28.12-.4.16a14.75,14.75,0,0,0-1.33,1c0,.08-.08.12-.09.2l.09.08a3.6,3.6,0,0,0,1.44-.47A.78.78,0,0,0,37.79,20.64Z"/><path d="M40.27,25.52c-.4,0-.68-.33-1-.41-.08,0-.2,0-.24.07,0,.25-.16.36-.37.44a.55.55,0,0,0,0,.44c-.24.16-.56.16-.84.32a.21.21,0,0,0,.08.32c.16,0,.27.12.43.16a1.37,1.37,0,0,0,.88.58l.08-.09c.08,0,.2,0,.28-.11A7,7,0,0,0,40.31,26C40.43,25.76,40.39,25.6,40.27,25.52Zm-1.09,1.07s-.12,0-.16,0a.51.51,0,0,1-.28-.37s0-.08.08-.11a.44.44,0,0,1,.4.24C39.22,26.47,39.18,26.51,39.18,26.59Z"/><path d="M13.39,27.13s.12-.08.16-.12a6.18,6.18,0,0,0,1-.55c0-.45-.4-.73-.68-1,0-.12-.16-.17-.2-.29s-.11-.16-.19-.2-.16-.2-.16-.32-.16-.32-.32-.36a2.86,2.86,0,0,0-1.52.47,1,1,0,0,0,.07.52v.16c.16.36.11.8.27,1.16.2.2.19.53.31.77C12.54,27.72,13,27.16,13.39,27.13Z"/><path d="M13.82,28.05c.16-.12.21-.31.32-.47s.13-.21,0-.24H14a1.12,1.12,0,0,1-.61.12,8.44,8.44,0,0,0-.76.63c0,.12-.16.24-.16.4s0,0,0,.08a2.35,2.35,0,0,0,.73-.11A1.34,1.34,0,0,1,13.82,28.05Z"/><path d="M17.6,27.24c-.4.16-.73.56-1.21.39-.28,0-.64-.08-.76.24a1.69,1.69,0,0,1-.21.88A3.5,3.5,0,0,1,14,28.7a1.32,1.32,0,0,1-.53.11.84.84,0,0,1-.52.2c-.12,0-.12.11-.12.2a1.06,1.06,0,0,0,.24.2,4.22,4.22,0,0,1,1.47.69,2.36,2.36,0,0,0,.72.57h.24a2.26,2.26,0,0,0,.73-.71l.36-.36c0-.08.09-.12.13-.2a5.48,5.48,0,0,0,.48-.39,3.21,3.21,0,0,1,.49-.6,4.9,4.9,0,0,0,.13-1A.3.3,0,0,0,17.6,27.24Z"/><path d="M15.81,25.74c.28-.11.56-.23.6-.55,0-.48,0-1,.06-1.48l-.08-.09a5.59,5.59,0,0,0-1.57.35.2.2,0,0,0-.16.28,6.27,6.27,0,0,1,.55.77C15.29,25.34,15.36,25.86,15.81,25.74Z"/><path d="M12.73,24c.13-.08.13-.16.13-.28-.28-.12-.57.12-.81.2h-.12a1.45,1.45,0,0,1-.4.15c-.08.08-.16.12-.16.24l.08.08c.28.05.52-.15.76-.23A.8.8,0,0,0,12.73,24Z"/><path d="M41.29,9.48c.17-.31.53-.39.81-.59a.2.2,0,0,0,0-.28,2.36,2.36,0,0,0-.44.11A4,4,0,0,0,41,9c0,.12,0,.24,0,.36S41.17,9.52,41.29,9.48Z"/><path d="M17.93,25.92a.75.75,0,0,0-.56.2c0,.08-.12.2-.05.28s.4,0,.6,0l.36.25c.17,0,.48.08.45-.16a.49.49,0,0,0-.16-.32A1.33,1.33,0,0,1,17.93,25.92Z"/><path d="M13.19,12.77a1.34,1.34,0,0,1,0-.2c0-.36.36-.8,0-1.09a1.88,1.88,0,0,1-.23-.16,3.42,3.42,0,0,0-.84-.81c-.24,0-.33.4-.33.6a2.22,2.22,0,0,1,.2.45,4.12,4.12,0,0,0-.34,1.56,1.85,1.85,0,0,1-.4.79,2,2,0,0,0-.17.85c-.12.32-.17.68-.29,1a.83.83,0,0,0,.23.72c0,.08-.08.16-.12.24a1.16,1.16,0,0,0-.36.6c-.05.24.15.4.23.6a3.27,3.27,0,0,1-.36.76c-.05.24.11.36.27.48a.34.34,0,0,1,0,.28c-.13.21-.37.28-.49.48a3.19,3.19,0,0,0-.32.64,2.62,2.62,0,0,0,0,.28c0,.12.12.12.2.12a2.19,2.19,0,0,1,.25-.4c.2.13.15.29.23.45a7.24,7.24,0,0,0,.12.92,1.44,1.44,0,0,0,.51.77,8,8,0,0,1,.15,1l.16.16c.48-.11,1.09-.23,1.33-.71a4.24,4.24,0,0,0-.22-1.73c.08-.2.12-.39.2-.56v-.2l-.35-.48a1.86,1.86,0,0,1,.08-1s0-.12,0-.16c.08-.32,0-.6.09-.93-.08-.16,0-.31-.16-.44,0-.12.2-.2.24-.31a.8.8,0,0,1,.08-.33h.12a2.51,2.51,0,0,1,1,1c.2.2.44.12.68.12,0,0,.05,0,0-.08s-.16-.2-.24-.28c-.24-.32-.27-.73-.55-1.05s.08-.64.09-1c0,0,0-.12,0-.16a8.23,8.23,0,0,1-.91-1.61C13,13.49,13.11,13.13,13.19,12.77Z"/><path d="M10,9.25c-.12-.12-.29,0-.41-.16H9.42A3.54,3.54,0,0,0,8,9.07a3.75,3.75,0,0,0-.6.24c0,.08-.12.12-.17.2.12.2.33.08.53.08a1.46,1.46,0,0,1,1.32.21,1.26,1.26,0,0,0,.68-.11c.28.08.64.13.84-.11C10.42,9.41,10.17,9.37,10,9.25Z"/><path d="M18.29,21.52c-.12.11-.28.11-.4.19-.17.32.15.52.31.69h.36a9.67,9.67,0,0,1,1.27,1.29.47.47,0,0,0,.69-.07c.2.08.07.2.11.28s.2,0,.32,0a.22.22,0,0,0,0-.36.51.51,0,0,0-.24,0c-.2-.08-.12-.16-.12-.24a1.06,1.06,0,0,0-.2-.24c-.36-.25-.68-.45-1-.69a2.44,2.44,0,0,1-.52-.17,3.05,3.05,0,0,1,0-1,3,3,0,0,1,.77-.64,1,1,0,0,1,.28.25,6.61,6.61,0,0,1,1.16.65c.47.4.75,1,1.19,1.42.32.2.63.6,1,.44,0,0,0,0,0-.08a3,3,0,0,0-.24-1c-.27-.44-.55-.81-.83-1.21a2.37,2.37,0,0,0-.83-.57c-.24-.08-.44-.33-.24-.56.57-.44,1,.29,1.4.69.16.17.36.12.56.12s.16-.15.2-.23a3.2,3.2,0,0,0-.82-1.82,1,1,0,0,0-.45-.24,3.6,3.6,0,0,0-1.12.15,1.55,1.55,0,0,0-.61,1h-.12a1.57,1.57,0,0,0-1.12-.33,2.29,2.29,0,0,0-.74,1.92A.89.89,0,0,0,18.29,21.52Z"/><path d="M17,19.26a1.42,1.42,0,0,1,.44-.12c.32-.16.6-.43.92-.59.12,0,.25,0,.33-.16a.24.24,0,0,0,0-.16,8.57,8.57,0,0,0-1.44-.86c-.12-.12-.32-.36-.51-.24a1.79,1.79,0,0,0-.18,1.8C16.63,19.05,16.7,19.3,17,19.26Z"/><path d="M20.13,26.34h-.28a1.26,1.26,0,0,1-.64.24.3.3,0,0,0-.25.36,1.33,1.33,0,0,0,.28.16c0,.08,0,.16.08.24s.12.08.2.08c.24-.16.37-.6.69-.39l0-.05a1.18,1.18,0,0,0,.92,0c.12,0,.12-.11.12-.2s-.28-.08-.44-.12A.73.73,0,0,1,20.13,26.34Z"/><path d="M14.06,18.59a6.65,6.65,0,0,0-.84-.33c-.08.08,0,.16,0,.24.28.41,0,.84-.09,1.24a2.47,2.47,0,0,1,.07,1,10,10,0,0,0,.47,1.53c0,.24-.09.6.15.72l1.77-.59c.16,0,.37,0,.4.17a7.3,7.3,0,0,1-1,.27c-.2.16-.48.2-.65.39,0,.08,0,.16.08.21s.24,0,.36,0a.42.42,0,0,1,.21-.08c.4,0,.68-.23,1-.39.08-.08.16-.16.12-.28s-.08-.08-.12-.08,0-.08.08-.12c.21-.08.45-.08.61-.28s.28,0,.44,0a5.16,5.16,0,0,0,.21-.84c0-.09-.08-.12-.12-.16-.48-.21-1-.37-1.44-.54v.16a.74.74,0,0,1,.15.77c-.08.07-.16.11-.24.07a1.19,1.19,0,0,0-.64-.08c-.16-.09-.16-.17-.2-.29.09-.31-.15-.6-.27-.88a11.32,11.32,0,0,0,.09-1.16C14.54,18.92,14.26,18.8,14.06,18.59Z"/><path d="M20.86,25.71c-.16-.16-.28-.32-.44-.49s-.2-.12-.32-.12c-.36-.08-.39-.41-.59-.61l-.24-.12a.83.83,0,0,1-.6-.2c-.08,0-.21.08-.28,0s-.12-.32-.24-.4-.44.12-.65.11v.21c.08.2.29.12.44.2-.08.32-.2.76.16,1a2.83,2.83,0,0,0,.68-.19.63.63,0,0,1,.64.12,2.75,2.75,0,0,0,1,.74c.11.16.19.36.39.44a.66.66,0,0,0,.29-.08.8.8,0,0,0,.43.05c0-.09,0-.21-.07-.25A2.81,2.81,0,0,0,20.86,25.71Z"/><path d="M17.71,23.48l0-.05c.16-.19-.16-.4-.36-.4A.45.45,0,0,0,17.71,23.48Z"/><path d="M22,24.56c-.12-.16-.19-.41-.44-.41s-.4-.08-.56,0a.25.25,0,0,0,0,.17h.32c.08.16,0,.32.16.44a4.51,4.51,0,0,1,.52.29c.16.12.23.32.39.4s.21,0,.25-.07C22.75,25,22.35,24.72,22,24.56Z"/><path d="M28.26,22.85a1.69,1.69,0,0,0,.14-2.17s-.08,0-.08,0a1.08,1.08,0,0,0-.09.84,2,2,0,0,1-.28.68c0,.16-.09.36,0,.52S28.15,22.94,28.26,22.85Z"/><path d="M35.65,22.39a2.48,2.48,0,0,0,.8-.16.55.55,0,0,0,.36-.2c0-.15.09-.35,0-.43a3.32,3.32,0,0,0-.88.11c-.28,0-.6.07-.8-.17s-.44-.64-.83-.57a10.07,10.07,0,0,0-.78,1,1.69,1.69,0,0,1-.92.55l-.21.2a5.07,5.07,0,0,1-.65,1.32s0,.12,0,.16l0,0c.24,0,.4-.2.6-.24.32-.36.77-.55,1.09-.87s.29-.68.49-1a2.6,2.6,0,0,1,.57-.31c.12,0,.31.12.27.28a3.82,3.82,0,0,1-.53,1.36,2.76,2.76,0,0,0-.72.64c-.33.23-.69.39-1,.59s-.37.35-.53.55c0,.13.12.16.24.17s.32-.12.48-.2a1.29,1.29,0,0,0,.93-.23,2.8,2.8,0,0,1,.41-.76c.44-.4,1-.79.93-1.44A.69.69,0,0,1,35.65,22.39Z"/><path d="M29,15.55a.31.31,0,0,1-.16.16.64.64,0,0,0-.77.2c-.12.12-.08.27-.08.44s.36.12.56.2c-.08.24-.36.16-.53.32a.31.31,0,0,0,.24.4,1.27,1.27,0,0,1,.56.09H29s.08,0,.12.08,0,.08,0,.12c-.32.2-.69.39-.81.75a2,2,0,0,0,0,.69.22.22,0,0,0,.28.24c.28-.32.36-.8.81-1a3.56,3.56,0,0,1,.87.29h.33c.55.21.63.89,1,1.3a2.49,2.49,0,0,0,.39.76,1.77,1.77,0,0,0,1.52.42c.12-.09.24-.24.13-.4a9,9,0,0,1-1.32-1.14.2.2,0,0,1,.2-.16,6.9,6.9,0,0,1,1.81.34,3.81,3.81,0,0,1,1.48.34c.24,0,.48.12.64-.12A8.14,8.14,0,0,0,37,17.19a.19.19,0,0,0-.28,0c-.2.68-.89.91-1.37,1.31-.12,0-.24.11-.37.15a3.86,3.86,0,0,1-.6.32,5.59,5.59,0,0,1-2-.18c-.2,0-.4,0-.56.08-.44-.13-.68-.53-1-.85-.16-.49-.31-.93-.43-1.45a.28.28,0,0,1,.21-.36.38.38,0,0,1,.2,0,12.23,12.23,0,0,0,1.07.65c.36.13.73,0,1.08.17,0,0,0,0,.09,0a4.23,4.23,0,0,0,1,.09,5.55,5.55,0,0,0,1.21-1.31c.16-.12.36-.2.45-.39a4.75,4.75,0,0,0-.2-1.05c0-.08,0-.16,0-.24.16-.24.44-.4.61-.64a1.61,1.61,0,0,0,.2-1,3.08,3.08,0,0,0-.27-.64c-.08-.2-.08-.41-.16-.61-.19-.36-.39-.68-.55-1-.2-.21-.32-.49-.55-.65a20.42,20.42,0,0,1,.93,2.66,1.06,1.06,0,0,1-.44,1,1.93,1.93,0,0,1-.89.16,14.62,14.62,0,0,0-1.48,0c-.08,0-.12.08-.2.08a1.43,1.43,0,0,0-.57.08H32a1.8,1.8,0,0,0-1.17.71,5.76,5.76,0,0,1-.77,1,.36.36,0,0,1-.2,0,5.77,5.77,0,0,1-.83-.89c-.2-.08-.36-.2-.56-.28H28a.82.82,0,0,0-.41.32.29.29,0,0,0,.2.36A1.22,1.22,0,0,1,29,15.55Zm2.13-.09a4.18,4.18,0,0,1,1.09-1.36,1.11,1.11,0,0,1,.68,0c.16,0,.4.21.36.41s-.36.24-.53.43a.76.76,0,0,0-.08.33c0,.16.16.35.36.32a1.66,1.66,0,0,0,.8-.48c.17-.24.09-.56.21-.84s.45-.11.65-.19a2,2,0,0,1,.31.12c.08.12,0,.24.08.37a3.47,3.47,0,0,1-.17,1.16,2.15,2.15,0,0,1-.28.35c-.16.16-.36.08-.52.16s-.37.4-.65.44a1.35,1.35,0,0,0-.44.07,1.09,1.09,0,0,1-.84-.36,4.57,4.57,0,0,0-1-.58A.22.22,0,0,1,31.14,15.46Z"/><path d="M35.14,25.47a1.2,1.2,0,0,1,.32-.16c.4.09.68.45,1.08.53.12,0,.16-.12.24-.19a.33.33,0,0,0-.12-.32,4.2,4.2,0,0,0-1.2-.38,5.42,5.42,0,0,0-.84.4c0,.08,0,.16,0,.24s.13.08.2.08A1.27,1.27,0,0,0,35.14,25.47Z"/><path d="M29.73,20.33a1.9,1.9,0,0,0-.81.68,7.13,7.13,0,0,0,0,.8,3.08,3.08,0,0,1,.11,1.24l-.12.24c-.28.28-.56.52-.85.79A1.09,1.09,0,0,0,28,25.13a2,2,0,0,0,.85-.36,2.47,2.47,0,0,0,.73-1.07,2.7,2.7,0,0,1,.08-.56A3.27,3.27,0,0,0,29.51,22a7,7,0,0,1,.26-1.6S29.72,20.37,29.73,20.33Z"/><path d="M22.25,40.76a.15.15,0,0,0,0,.12c.16,0,.32-.12.41-.28C22.5,40.48,22.37,40.64,22.25,40.76Z"/><path d="M30.22,19.05a.72.72,0,0,0-.6.28c0,.12-.09.32,0,.4h.08a1.58,1.58,0,0,0,1-.19h.16C31,19.18,30.42,19.18,30.22,19.05Z"/><path d="M34.21,25.46a1.77,1.77,0,0,0-.64.2s-.12.08-.12.16,0,.2.12.28a2.48,2.48,0,0,0,.68-.19C34.37,25.79,34.42,25.5,34.21,25.46Z"/><path d="M22.53,9.48a6.11,6.11,0,0,1-.05.73c-.13.19-.36,0-.52-.05s-.24-.2-.4-.28l-.08.07a13,13,0,0,1,.59,1.25c.16.2.35.49.64.45a2.39,2.39,0,0,0,0-2.25A.12.12,0,0,0,22.53,9.48Z"/><path d="M30.28,40c-.08.12-.2.08-.28.16v.16s0,0,.07,0l.13-.12c.24-.08.16-.12.16-.2S30.32,40,30.28,40Z"/><path d="M24.05,40.94c.09,0,.13-.09.13-.12v-.2C24,40.57,24,40.82,24.05,40.94Z"/><path d="M25.46,40.59a.52.52,0,0,0-.2.35v.16c0,.09.16.09.24.09.24-.08.12-.44,0-.6Z"/><path d="M29,40.3a1,1,0,0,1-.32.11.15.15,0,0,0,0,.24c.12-.11.2,0,.32,0a.2.2,0,0,0,0-.28S29,40.3,29,40.3Z"/><path d="M32.84,21.8s0,0,0-.08a.49.49,0,0,0-.19-.32h-.17a.74.74,0,0,0-.6,0c-.24.12-.64.28-.56.64.12.08.24,0,.36,0A1.62,1.62,0,0,1,32.84,21.8Z"/><path d="M30,12.51c0,.08,0,.16.07.21s.21-.17.13-.28C29.92,12.31,30.12,12.52,30,12.51Z"/><path d="M30.92,12.4c0,.08,0,.16,0,.2s.36.08.52,0c.2-.28.6-.4.69-.76a1.12,1.12,0,0,0-.47-.89c-.17,0-.17.12-.25.16A3.05,3.05,0,0,1,31,10.6H30.9c-.21.32-.25.76-.46,1.08,0,.12,0,.28.08.36.32,0,.45-.24.65-.44,0,0,.08,0,.12.08a.36.36,0,0,1,0,.2A2.71,2.71,0,0,1,30.92,12.4Z"/><path d="M30.34,14.2a4.23,4.23,0,0,0,.17-.68c0-.08,0-.16-.08-.2h-.08c-.24.2-.25.56-.29.88,0,0,0,.08.08.12S30.3,14.32,30.34,14.2Z"/><path d="M32.56,12.58v.12a3.34,3.34,0,0,0,1.25-.23c.16-.12.3-.42.12-.6s-.68-.25-1-.29c-.12.19.12.32.2.44C33.12,12.34,32.69,12.34,32.56,12.58Z"/><path d="M46.76,21.94A21.59,21.59,0,0,0,42.94,9.46a6.18,6.18,0,0,1,1.13-1.15c.4-.24.19-.38,0-.46a6.85,6.85,0,0,0-2.54-.18c-.34-.4-.68-.79-1-1.16A21.57,21.57,0,0,0,25.2,0H25A21.7,21.7,0,0,0,8.3,7.88,9.45,9.45,0,0,1,5.33,9c-.4.06-.29.3,0,.42a2.88,2.88,0,0,1,1.14.89A21.72,21.72,0,0,0,24.82,43.5H25A21.81,21.81,0,0,0,46.76,21.94ZM25,1h.18A20.64,20.64,0,0,1,39.81,7.2c.17.17.33.35.5.53-1,0-1.71,0-1.71,0a19.54,19.54,0,0,0-26.84-.32,9,9,0,0,0-1.66-.07A20.71,20.71,0,0,1,25,1Zm0,41.52h-.19A20.71,20.71,0,0,1,7.31,11a6.64,6.64,0,0,1,1.15.44A19.52,19.52,0,0,0,20.39,40.72a2.49,2.49,0,0,0,.58-.53c0-.2.13-.4.09-.6a9,9,0,0,1-.47-.93,3.68,3.68,0,0,0,.05-2.08,1,1,0,0,1,.05-.36c0-.41-.12-.77,0-1.17,0-.12,0-.2,0-.32a6.13,6.13,0,0,1,.74-1.84,11.12,11.12,0,0,1,.33-1.08s.08,0,.12-.08a.74.74,0,0,1,.31.53,1.13,1.13,0,0,1,.28.68,5.64,5.64,0,0,0-.74,1.88,16.83,16.83,0,0,0,0,2,1.76,1.76,0,0,0,.48.72,2,2,0,0,0,.12.28,1.49,1.49,0,0,0,.63.45,1.89,1.89,0,0,0,1.58-.63c.28-.12.59.17.79.33.12,0,.2.08.28,0s-.07-.6-.31-.72a3.05,3.05,0,0,1-.52,0c-.36.08-.64.24-1,.31a.25.25,0,0,1-.16-.24s.08,0,.13-.08h.2a.4.4,0,0,1,.2-.07c.12,0,.28-.08.4,0s.36-.28.6-.32.24.13.37.13a.79.79,0,0,0,.55.4c0,.08.12.16.12.24a.69.69,0,0,0,0,.49h.15a.71.71,0,0,1,1-.16c.08,0,.24,0,.2-.11a.66.66,0,0,0-.72-.37s-.08,0-.12-.08c.09-.24.37-.2.57-.32h.16a1.36,1.36,0,0,1,1.16.13c.08.16,0,.32,0,.48s.2.16.36.17.45-.24.53-.48a.82.82,0,0,0-.27-.64c0-.08,0-.16.08-.24.28-.4.36-.92.61-1.36a.66.66,0,0,1,.72-.11c.24.2.12.52.16.76,0,.08,0,.2.16.2a1.36,1.36,0,0,1,.12-.12c0-.28-.08-.56.09-.8s.24-.12.32-.2c.36,0,.43.49.35.77s-.28.48-.37.72a5.36,5.36,0,0,0,0,.8c-.13.4-.13.84-.3,1.24-.07.2-.28.32-.36.48h.12a4.35,4.35,0,0,0,.57-.64A5.88,5.88,0,0,0,31.59,37c.08-.28.24-.48.32-.76.09-.72,0-1.48.11-2.2a.55.55,0,0,1,0-.25c.13-.87,0-1.8,0-2.68a4.71,4.71,0,0,1,.74-1.68.37.37,0,0,1,.19.32l.08.08h.08l.33-.31c.16-.2.2-.48.4-.68.08,0,.12,0,.21-.08.2-.2.32-.48.64-.4.12-.07.08-.2,0-.31-.23-.33-.59-.41-.88-.65s-.31-.73-.54-1.05a2.52,2.52,0,0,0-1,.47.3.3,0,0,0,0,.2.74.74,0,0,1,.26,1.05c-.16.2-.35.07-.51,0a4.37,4.37,0,0,0-1.16-.73.34.34,0,0,1-.28-.08,8.85,8.85,0,0,1-1.48-.14c-.08,0-.12,0-.2-.08a1,1,0,0,1-1-.89.52.52,0,0,1,.29-.4.37.37,0,0,0-.08-.48.15.15,0,0,0-.12,0,1.44,1.44,0,0,1-.4.28c-.24-.33-.28-.85-.6-1.09-.16.2.08.44,0,.64s-.17.32-.36.36-.56-.29-.52-.57a.87.87,0,0,0-.23-1.24,1.81,1.81,0,0,0-.92-.29,1.14,1.14,0,0,1-.27-1,8.42,8.42,0,0,0,.24-1c.13-.44.37-.8.5-1.24a2,2,0,0,0-.91-1.89,2.56,2.56,0,0,0-.79-1.25.23.23,0,0,1,.24-.15,1.14,1.14,0,0,1,.68.36,2.57,2.57,0,0,1,.35,1,.84.84,0,0,0,.28.2.82.82,0,0,0,.33-.4,4.13,4.13,0,0,0-.07-1.4s0-.09.08-.12.28.12.36,0c.09-.56-.39-.89-.67-1.29,0,0,0-.08,0-.12.2-.12.52.08.57-.24a.86.86,0,0,0-.28-.52,1.81,1.81,0,0,0-1.44-.05,6.62,6.62,0,0,1-1.37.71s-.09,0-.12-.08a14.92,14.92,0,0,0-1-1.62,4.64,4.64,0,0,0-1.51-.93,2.72,2.72,0,0,1-1-.17,1.93,1.93,0,0,0-1.24.39c-.2-.2,0-.24,0-.36a3.7,3.7,0,0,1,1.29-.67,4.58,4.58,0,0,1,1.08.21l.72.37c.24,0,.64.16.72-.16-.08-.28-.16-.6-.23-.88A7.64,7.64,0,0,0,20.84,10c0-.08,0-.16-.08-.24a1.27,1.27,0,0,0-.12-.65,3.3,3.3,0,0,1-.47-.64h-.08L20,8.58a3.49,3.49,0,0,0,.18,1.56c.12.37.44.57.64.89,0,.12.23.32,0,.36a2.75,2.75,0,0,1-1.36-.85,1.64,1.64,0,0,0-1.45,0c-.12,0-.32,0-.36-.13a5.32,5.32,0,0,0,.45-.68,4.18,4.18,0,0,0-.19-1.28,2.82,2.82,0,0,0-1.17.91,1.94,1.94,0,0,0-.17.6c-.12.44-.52.88-.37,1.36a1.62,1.62,0,0,1,.28.61.24.24,0,0,0,.32,0,2.46,2.46,0,0,0,.61-1.2s.08-.12.12-.16a2.2,2.2,0,0,1,.36.28c.16.05.36.09.4.29a1.8,1.8,0,0,0-.89.83,2.47,2.47,0,0,1-.37.44,1.18,1.18,0,0,0,.08.52c0,.4-.37.64-.73.72A.57.57,0,0,1,16,13.6a5.07,5.07,0,0,0-.59-.33.54.54,0,0,1-.16-.49,1.47,1.47,0,0,1,.16-.43A3.77,3.77,0,0,1,15.73,11a.61.61,0,0,1,0-.29c0-.44-.11-.84-.07-1.28.08-.16.08-.36.16-.52a2.23,2.23,0,0,0,.73-1,.71.71,0,0,1,.21-.27c.24-.16.52-.2.68-.44s0-.52.09-.76-.08-.24-.2-.2a4.17,4.17,0,0,1-.45.52,2.87,2.87,0,0,1-.92.39,1,1,0,0,0-1,.51c-.08.32,0,.6,0,.92,0,.09.08.12.08.21a.94.94,0,0,1,0,.32,1.84,1.84,0,0,1-.36.15c-.09,0-.2,0-.28,0a.49.49,0,0,1-.05.2,1,1,0,0,0-.36.64c-.09.12-.21.2-.29.32.4.48.27,1.16.55,1.73,0,.52-.41.88-.53,1.36a1.54,1.54,0,0,0,.31,1.2c.2.2.48.37.67.57a4.6,4.6,0,0,1,.43,1.08c0,.08,0,.16,0,.25s.08,0,.08,0,0-.12,0-.16a5.77,5.77,0,0,0,.61-1.64c0-.16.16-.16.28-.12a2,2,0,0,1,.31,1.2c.28.49.92.45,1.4.5a.25.25,0,0,1,.25-.16c.08-.08,0-.24.2-.24a2.55,2.55,0,0,0,1.08.17c.2.16.36.05.56.09s.08-.12,0-.2a2.92,2.92,0,0,1-1.87-1.19,3.34,3.34,0,0,1-.2-.92,1.4,1.4,0,0,1,.81-.55c.08,0,.12,0,.2.08,0,.48.11,1.08.63,1.29h.28c.12-.16,0-.36,0-.52s0-.68.29-.76c.75.37,1.67,1,1.66,1.94a7.93,7.93,0,0,0,.51,1.33v.12a6.41,6.41,0,0,1-1.85.62l-.24.12v.08c.19.16.27.77.59.53a3.14,3.14,0,0,1,2.22-.87,1.34,1.34,0,0,1,1,.86c0,.24-.24.4-.33.6a.33.33,0,0,0,.12.32,1.51,1.51,0,0,1,.73,0c.16.17.11.41.19.61l-.12.48c0,.24-.09.44,0,.68-.12.52-.25,1.08-.33,1.6a2.47,2.47,0,0,0,.15,1,1.78,1.78,0,0,0,.76.53,2,2,0,0,0,.11.2,3.79,3.79,0,0,0,.32.93,7.51,7.51,0,0,0,.79.69c.12.24-.08.24-.12.36a11,11,0,0,1-1.05.87,3.73,3.73,0,0,1-1.41.47c-.08,0-.12.08-.2.08a4.39,4.39,0,0,0-.72.07,7.86,7.86,0,0,0-1.45-.17c-.08,0-.16,0-.24-.08H21c-.13,0-.21-.09-.29-.13a1.62,1.62,0,0,1-.67-.17.71.71,0,0,1-.13.12,7,7,0,0,1-.69,1.32c-.12.2-.36,0-.56.08a1.89,1.89,0,0,0-.68-.17,1.77,1.77,0,0,0-.57.68s-.12.07-.16.12a4.8,4.8,0,0,1-.85,1,.56.56,0,0,0-.09.56.76.76,0,0,0,.32.2,1.94,1.94,0,0,0,.72,0,2.16,2.16,0,0,0,.56.05,2.15,2.15,0,0,1,1.56.29,2.11,2.11,0,0,1,.92,1.17.59.59,0,0,0,.08.36c-.09.2-.05.4-.13.61-.08,0-.16.11-.24.11s-.08,0-.12,0c-.24,0-.44.07-.64-.08,0,0-.12,0-.17.07a2.14,2.14,0,0,1-.67-.52c-.28,0-.49.27-.72,0,0,0-.08,0-.12.08s-.25.36-.41.2c0-.17,0-.36,0-.53a.14.14,0,0,0-.24-.08,2.23,2.23,0,0,0-.2.32,9.66,9.66,0,0,0-1.46,1.67c-.16.12-.25.32-.45.44-.24-.13,0-.16-.08-.24a10.64,10.64,0,0,0,.69-1.24c.13-.16.21-.28.33-.44a.47.47,0,0,0-.15-.76.45.45,0,0,1-.32-.12h-.2a3.92,3.92,0,0,0-.81.91,12.52,12.52,0,0,0-1,1c0-.05-.07-.05-.11-.08s.12-.25.16-.37a.62.62,0,0,1,.2-.27,9.44,9.44,0,0,1,.82-1.36c0-.16.08-.28.12-.44a7.91,7.91,0,0,0-.71-.81c-.08,0-.12,0-.2,0a1.58,1.58,0,0,0-.56-.29,5.39,5.39,0,0,0-1.09.75,3.91,3.91,0,0,1-.65.4s0-.08-.08-.12l1.1-1.19a.68.68,0,0,0,0-.28c-.12-.21-.32-.33-.28-.57,0-.08-.12,0-.2,0-.56.4-1.13.79-1.65,1.23,0,0-.08,0-.12-.08a.21.21,0,0,1,.08-.16.4.4,0,0,0,.2-.16,4.87,4.87,0,0,0,.37-.6,1.16,1.16,0,0,0,.44-.72c-.11-.2-.36-.16-.55-.24s-.13,0-.16,0a2.25,2.25,0,0,1-.69.31,5.29,5.29,0,0,0-.77.44s0-.08-.07-.12A4.34,4.34,0,0,1,9.72,29c.12-.16.28-.28.41-.44a2.22,2.22,0,0,1,.32-.24c.28-.15.2-.47.2-.72a1.55,1.55,0,0,0-.07-.23,1.68,1.68,0,0,0-.08-.65c-.08-.12-.24,0-.32-.16a.4.4,0,0,0-.07-.2c-.2,0-.32-.21-.44-.33s-.41.16-.65.2C8.86,26,9,26,9,26a.65.65,0,0,1,.36-.15c.16-.12.4-.16.36-.4A.88.88,0,0,0,9.24,25c-.17,0-.33.12-.49.12s0-.08-.08-.12a3.58,3.58,0,0,0,.49-.4c0-.16-.08-.28-.12-.4s.21-.48.09-.72a3.07,3.07,0,0,1-.47-.85.36.36,0,0,1,0-.2c-.12-.16,0-.36,0-.52a2,2,0,0,1-.12-.28c0-.12.13-.2.09-.32s-.28-.2-.24-.4a7.42,7.42,0,0,0,.42-2.29A2.83,2.83,0,0,0,9.1,18c.08-.37-.16-.65-.24-1S9,16.7,9,16.5s-.12-.32,0-.48a.83.83,0,0,0,.05-1,4.07,4.07,0,0,1,.13-.68,7.76,7.76,0,0,0-.15-.84,3.33,3.33,0,0,1,.77-1.28c0-.08.12-.12.12-.24a6.67,6.67,0,0,1,.49-1.24v-.24a.52.52,0,0,0-.4,0,2.67,2.67,0,0,1-.84.36H9a1,1,0,0,1-.6.07A4.43,4.43,0,0,1,7,10.35a8.46,8.46,0,0,0-1.12-1c-.11-.41.17-.08.17-.24A2.59,2.59,0,0,0,6.57,9a10.08,10.08,0,0,1,3.94-1.21c.08,0,.16,0,.24-.08s.12,0,.2.09h.28a1,1,0,0,0,1,0h.16a.78.78,0,0,0,.73-.52A2.92,2.92,0,0,1,14,6.84a8.66,8.66,0,0,0,2.81-.74c.88-.47,1.73-1,2.62-1.5a4.73,4.73,0,0,1,2-.58c.08,0,.12-.08.2-.08.68-.08,1.36.05,2,0,.09,0,.21,0,.28.08h.73c.08,0,.12,0,.2.09h.28l.68.21a13.45,13.45,0,0,1,1.76.29,1,1,0,0,0,.48,0,.75.75,0,0,0,.64,0,7.23,7.23,0,0,0,.93,0,.47.47,0,0,0,.2-.08s.08,0,.12,0,.16,0,.28,0a8.2,8.2,0,0,0,1.4.06c.48.16,1,.25,1.44.41a2.69,2.69,0,0,1,.48.24,12.43,12.43,0,0,1,4.11,2.57c.24.2.6.16.88.25a11.23,11.23,0,0,0,1.16,0,.94.94,0,0,1,.32.08c.08,0,.16,0,.24-.08A1.48,1.48,0,0,0,41,8c.33,0,.65.08,1,.05.08,0,.12-.08.2-.08a5.17,5.17,0,0,1,1.36,0c.2.2,0,.24,0,.36A3.84,3.84,0,0,0,42.9,9l-.64.39a2.29,2.29,0,0,0-.41.52c0,.08-.16.08-.2.16a6.58,6.58,0,0,1-1.33.39c-.08,0-.16,0-.2.12a3.61,3.61,0,0,1-.45.6c-.21.55-.33,1.16-.53,1.71,0,.08,0,.21,0,.29a1.46,1.46,0,0,0,.56.64,2.38,2.38,0,0,1,.15.72,12.82,12.82,0,0,0,.67,1.62c.12.28.16.8.56.72s.6-.27.88-.47c0,0,.08,0,.12.08a7.66,7.66,0,0,1-.65.63s0,.09,0,.09a10.74,10.74,0,0,0,1.37-.75s.07,0,.11.08c-.2.31-.52.48-.72.79s-.61.44-.89.72a.71.71,0,0,0-.09.64,3,3,0,0,1,.23,1.08c0,.08,0,.2.08.29a1.74,1.74,0,0,1,0,.64s0,.07,0,.12a.33.33,0,0,1,0,.19c0,.45,0,.85,0,1.29.08.24.12.44.19.68s-.12.72-.09,1.08a3,3,0,0,1-.12.32c0,.41.48.53.72.81,0,0,0,.08-.08.12-.25,0-.44-.12-.69,0,0,.08,0,.16.08.2a4.64,4.64,0,0,1,1,.65s0,.08-.08.12a3.5,3.5,0,0,0-.92-.25c-.08,0-.12,0-.2-.09A.29.29,0,0,0,41,26c-.12.2-.09.48-.21.69a6.52,6.52,0,0,0-.49.95c0,.05,0,.12.08.16.56.53,1.07,1.1,1.67,1.58,0,0,0,.08-.08.12a6,6,0,0,1-.68-.4A3.4,3.4,0,0,0,40,28.28a2.79,2.79,0,0,0-.73.68c0,.08,0,.16,0,.24.16.24.44.44.36.76.16.21.36.37.48.57,0,0-.08,0-.13.08s-.27-.21-.44-.17v.08a1.36,1.36,0,0,1,.28.53,2.07,2.07,0,0,1,.71.64s0,.09,0,.12a.83.83,0,0,1-.31-.16,9.87,9.87,0,0,0-1.4-1.17.25.25,0,0,0,0,.16,18.28,18.28,0,0,0,1.39,1.61s0,.08-.08.12a19.26,19.26,0,0,1-1.79-1.54.43.43,0,0,0-.32.08,2.22,2.22,0,0,1-.93.64,1.51,1.51,0,0,0-1.17.31c-.28.11-.55-.17-.8-.29,0,0-.08,0-.11,0,0,.25.19.61-.13.73a2.34,2.34,0,0,1-.24-.09,2.38,2.38,0,0,1-.93.08c-.28,0-.35-.32-.43-.57a.36.36,0,0,0-.48,0,.6.6,0,0,0-.12.28.66.66,0,0,0,.07.32,1.44,1.44,0,0,1,.28.4,11.9,11.9,0,0,0-.14,1.68c0,.08,0,.2-.08.28,0,.28,0,.57,0,.85.08.6.43,1.52-.33,1.8-.08,0-.08.12-.13.2v.52c-.16.36-.37.72-.57,1.08l-.16.16c-.12.18-.16.65.08.75a19.52,19.52,0,0,0,9.57-29.23,1.56,1.56,0,0,1,.89-.7s.06,0,.09,0a20.6,20.6,0,0,1,3.57,11.79A20.82,20.82,0,0,1,25,42.51ZM23.64,28.7c0,.12,0,.24-.08.36a8.09,8.09,0,0,0,.14,1.69,4.79,4.79,0,0,1-.05.84c-.12.16-.2,0-.28,0a2,2,0,0,1-.75-.73,4.08,4.08,0,0,1-.22-2.73A2.38,2.38,0,0,1,23.48,28C23.81,28.14,23.6,28.46,23.64,28.7Zm2.82,2.79c0-.32,0-.6,0-.92s.08-.44.29-.56a.34.34,0,0,1,.48.25,8.65,8.65,0,0,1,0,.88c-.05.55.19,1.2-.18,1.72a4,4,0,0,1-.6.28,6.83,6.83,0,0,1-1.28,0,.78.78,0,0,1-.28-.16c-.12-.2.08-.4.28-.47s.6-.2.93-.32A1.47,1.47,0,0,0,26.46,31.49Zm0-3.73a.36.36,0,0,1,.28-.12c.2,0,.28.21.36.33s0,0,.08,0h.2c.12-.12.16-.32.36-.28,0,.08.12.17.12.24-.05.28,0,.61-.21.8a2.87,2.87,0,0,1-1.17-.05A1.57,1.57,0,0,1,26.42,27.76Zm-.58,1.48c-.4.2-.48-.24-.56-.52a.29.29,0,0,0-.4,0c0,.12,0,.24-.08.36a.26.26,0,0,1-.44,0,4.52,4.52,0,0,1-.16-.73c.09-.32.37-.39.65-.47a.66.66,0,0,0,.4-.08c.28,0,.57-.15.81.05C26.09,28.24,26.32,28.92,25.84,29.24Zm-1.58,6s.08,0,.12,0c.29-.13.57-.4.93-.32a2.64,2.64,0,0,0,.92.53,2.73,2.73,0,0,1,.8.09l.8-.32c.28-.11.61,0,.89-.11a.41.41,0,0,1,.39.45c-.12.4-.32.88-.77,1-.2,0-.36-.12-.56-.08s-.16-.16-.2-.24-.43-.17-.68-.17c-.08,0-.08.16-.08.24a.34.34,0,0,1,.12.2c-.08,0-.16.12-.24.12a.52.52,0,0,0-.36.07c-.16,0-.16-.08-.16-.16s.08,0,.12-.08,0-.16-.08-.2a1.7,1.7,0,0,1-.44-.08c-.2,0-.4.12-.6.11a5.37,5.37,0,0,1-1.73.47c-.32-.12-.36-.48-.43-.77a1.15,1.15,0,0,1,.44-1A.78.78,0,0,1,24.26,35.28Zm4-7.7a1.48,1.48,0,0,1,1.25.05l.15.16a.88.88,0,0,1,0,.32c-.08.24,0,.48-.17.68-.36.28-.8.11-1.2.15-.2-.08-.24-.28-.28-.44C28.09,28.18,28,27.82,28.3,27.58Zm1.8.74c0-.21-.06-.45.16-.56a1.17,1.17,0,0,1,.73-.08,1.12,1.12,0,0,1,.59.77,3.89,3.89,0,0,1-1,3.2.89.89,0,0,1-.36.19.19.19,0,0,1-.28-.16A10.55,10.55,0,0,0,30.1,28.32ZM17.54,15c-.08.08-.2.08-.24-.08a.66.66,0,0,1,.09-.4h.12A.88.88,0,0,1,17.54,15Z"/><path d="M27.06,9.36a2.54,2.54,0,0,1,.43.77A4.12,4.12,0,0,1,27.24,12a1.93,1.93,0,0,0,0,.24c.12.24.24.6.52.61.12-.32-.08-.69.17-1,.08-.35-.27-.88.09-1.12a2.74,2.74,0,0,1,.67.69,5.87,5.87,0,0,1,.44,1.17l.15.16h.08c0-.08,0-.16.08-.24a2.59,2.59,0,0,1,0-.92,2.05,2.05,0,0,0,.25-1c-.19-.4-.39-.81-.63-1.21a.75.75,0,0,1,.08-.32c.09-.36-.27-.61-.47-.85a.2.2,0,0,0-.28,0,1.94,1.94,0,0,0-.17.6c-.08.08-.12.2-.24.24a6,6,0,0,1-.8-.41s0-.08,0-.12c.13-.28.17-.64.41-.8a1.72,1.72,0,0,0,.44.09,1.27,1.27,0,0,1,1.08,0c.24.33.28.73.52,1.05a5.22,5.22,0,0,0,2.63,1.39c.12,0,.12-.12.12-.24a2,2,0,0,0-.67-.81,7.73,7.73,0,0,1-1.12-.61,1.3,1.3,0,0,1-.88-.45c.16-.16.28,0,.4,0a1.7,1.7,0,0,0,1.08.37c.08,0,.12,0,.2.09a11,11,0,0,1,1.29,0c.08,0,.12-.08.16-.12a.7.7,0,0,0-.28-.84,3.31,3.31,0,0,0-1.76-.62c-.08,0-.12,0-.19-.09H30.4a4.41,4.41,0,0,0-.72-.16l-.07-.08c.08,0,.16-.12.24-.12a5,5,0,0,0,1.4.09c.08,0,.12,0,.2.08a5,5,0,0,1,2.6.87c.2.08.52.2.64-.08a1.21,1.21,0,0,0-.31-.84c-1-.53-2-1.38-3.2-1.27a1.31,1.31,0,0,1-1.08,0c-.44,0-.93,0-1.37,0a6.82,6.82,0,0,1-1.64.15c-.08,0-.12.08-.2.08s-.12,0-.2-.08c-.64.11-1.16-.37-1.68-.66a6.43,6.43,0,0,0-1.76-.33,1,1,0,0,0-.36-.09c-.08,0-.12.08-.2.08h-.36a8.41,8.41,0,0,1-.85.15,4.49,4.49,0,0,0-3.06,2.06,1.89,1.89,0,0,0-.09.52c0,.12.16.28.32.24a6.68,6.68,0,0,1,3.23-1.82,6.41,6.41,0,0,0,1.24,0c.16.08.36,0,.48.16s-.21.2-.29.24h-.68c-.08,0-.16,0-.24.08-.36,0-.68,0-1,0a3.27,3.27,0,0,0-.76.36,1.19,1.19,0,0,0-.37.64c0,.16,0,.36.11.47a2.32,2.32,0,0,0,.77-.11h.31c.61-.15,1.17-.38,1.78-.58h.64s0,.08.08.12a2.77,2.77,0,0,1-1.45.59A.3.3,0,0,1,22.3,8a1.35,1.35,0,0,0-1,.51,2.08,2.08,0,0,0-.13.64c0,.12.12.12.25.13a1.29,1.29,0,0,1,1-.48.71.71,0,0,0,.37-.2c.07,0,.15,0,.23-.08s.28,0,.41,0a18.17,18.17,0,0,1,2.25-.62s0,.07.08.12c0,.32-.17.67.07,1,0,0,0,.08-.08.12a1,1,0,0,1-.32-.16,1.17,1.17,0,0,0-.92-.45c-.4.23-.93.31-1.17.75v.08c.08,0,.12.12.2.16a.59.59,0,0,1,.36.08c0,.08,0,.12-.09.2A3,3,0,0,0,23.23,11c0,.2-.08.56.2.64.56-.27.81-.91,1.17-1.39L25,10c.28-.28.64-.44.92-.75-.07-.21.05-.33.25-.37.36,0,.8.25.6.65s-.73.31-1,.55l-.53.52a.81.81,0,0,0,0,1.12s0,0,.08,0c.25-.28.41-.68.77-.75a4.6,4.6,0,0,0,.68.56c.16,0,.16-.12.2-.24A6.28,6.28,0,0,1,27,9.68c0-.08-.08-.12-.12-.16S27,9.36,27.06,9.36Zm1.48.33s.08.05.12.05a.6.6,0,0,1-.17.67c-.12-.12-.28-.2-.32-.36S28.42,9.82,28.54,9.69Z"/><path d="M29.07,13.31c-.08,0-.08.16-.09.24s.12.08.2.08.09-.12.09-.2S29.15,13.31,29.07,13.31Z"/><path d="M27.18,23.36c0,.12.07.24.19.28s.16,0,.25-.12v-.28C27.5,23.08,27.29,23.24,27.18,23.36Z"/><path d="M28,13.22c0,.08.12.08.2.08l.08-.08v-.28l-.16,0A.33.33,0,0,0,28,13.22Z"/><rect x="2.73" y="37.46" width="4.94" height="1.34" transform="translate(-22.54 11.45) rotate(-38.36)"/><path d="M8.79,41.09l-.6.75.9.71-.54.68a5.4,5.4,0,0,1-.69-.5,1.56,1.56,0,1,1,1.77-2.57A1.06,1.06,0,0,1,10,41.45l1.07.86c.81-1,.48-1.93-.85-3a2.68,2.68,0,0,0-3.92.17,2.5,2.5,0,0,0,.45,3.79,8.38,8.38,0,0,0,2.39,1.43l1.62-2Z"/><polygon points="16.13 44.13 16.58 43.24 12.93 41.4 10.71 45.81 14.36 47.65 14.79 46.79 12.36 45.57 12.88 44.55 15.12 45.68 15.55 44.82 13.31 43.69 13.7 42.91 16.13 44.13"/><path d="M29.36,46.52v0a1,1,0,0,0,.55-1.12c-.07-.86-1-1.2-2-1.12l-2.65.23.41,4.85,2.79-.23c.33,0,1.84,0,1.82-1.43A1.14,1.14,0,0,0,29.36,46.52Zm-2.65-1.18,1.1-.1c.34,0,.61.14.63.41s-.21.52-.6.55l-1.05.1Zm1.56,2.8L27,48.25l-.08-1,1.41-.12a.52.52,0,0,1,.54.46C28.84,47.9,28.61,48.11,28.27,48.14Z"/><polygon points="43 35.95 45.38 38.13 41.51 37.58 40.12 39.09 43.75 42.42 44.61 41.48 41.84 38.93 41.87 38.89 46.3 39.64 47.46 38.37 43.84 35.04 43 35.95"/><path d="M49.39,31.21c-1.52-1-2.83-.08-3.67,1.24l-1.27,2,4.14,2.61,1.27-2C50.76,33.59,50.92,32.18,49.39,31.21ZM49,34.61l-.51.81L46,33.82l.51-.81A1.5,1.5,0,1,1,49,34.61Z"/><polygon points="4.97 35.8 5.82 35.3 3.33 31.04 2.48 31.53 3.41 33.12 0 35.12 0.69 36.29 4.09 34.29 4.97 35.8"/><path d="M20.11,44.09l-2.55-.63L16.39,48.2l1.22.3.44-1.76,1,.25c.77.19.82.38.74,1a7.42,7.42,0,0,0-.14,1l1.51.38c0-.42,0-.34,0-.75s.49-1.31-.36-1.74v0a1.17,1.17,0,0,0,1.1-1.06C22.09,44.91,21.16,44.3,20.11,44.09Zm.17,1.65c-.12.49-.61.43-1.09.32l-.92-.23.27-1.1.92.23C19.94,45.08,20.4,45.25,20.28,45.74Z"/><path d="M35.29,45v0a1.18,1.18,0,0,0,.32-1.5c-.33-.84-1.44-.84-2.44-.42l-2.46.89,1.67,4.59,1.18-.43-.62-1.7,1-.36c.75-.27.89-.14,1.15.4a8.24,8.24,0,0,0,.47.94L37,46.82c-.26-.33-.2-.28-.43-.61S36.23,44.85,35.29,45Zm-1.8.21-.88.32-.39-1.07.89-.32c.47-.17,1-.28,1.12.2S34,45,33.49,45.17Z"/><path d="M37.12,41.09l.36,5.46,1.3-.8-.12-1.1,2.25-1.39.93.6,1.3-.8-4.72-2.77Zm1.43,2.51-.21-2L40,42.69Z"/>
</svg>